<?xml version="1.0" standalone="no"?>
<!DOCTYPE svg PUBLIC "-//W3C//DTD SVG 20010904//EN"
 "http://www.w3.org/TR/2001/REC-SVG-20010904/DTD/svg10.dtd">
<svg version="1.0" xmlns="http://www.w3.org/2000/svg"
 width="512.000000pt" height="512.000000pt" viewBox="0 0 512.000000 512.000000"
 preserveAspectRatio="xMidYMid meet">
<metadata>
Created by potrace 1.13, written by Peter Selinger 2001-2015
</metadata>
<g transform="translate(0.000000,512.000000) scale(0.100000,-0.100000)"
fill="#000000" stroke="none">
<path d="M0 2560 l0 -2560 2560 0 2560 0 0 2560 0 2560 -2560 0 -2560 0 0
-2560z m2394 2335 c115 -30 193 -111 223 -229 l15 -64 55 -4 c57 -5 92 -25
127 -72 19 -25 21 -41 21 -206 0 -196 -2 -205 -69 -254 -27 -20 -39 -21 -446
-21 -407 0 -419 1 -446 21 -67 49 -69 58 -69 254 0 165 2 181 21 206 35 48 70
67 128 72 l55 4 10 49 c29 133 99 210 222 243 70 19 83 19 153 1z m-754 -575
l0 -160 -340 0 -340 0 0 -1780 0 -1780 953 0 952 0 160 -160 160 -160 -1116 0
c-1239 0 -1157 -4 -1266 67 -62 41 -94 77 -131 147 l-27 51 -3 1835 c-3 2081
-10 1893 82 1985 28 28 69 59 91 70 85 41 119 44 478 44 l347 1 0 -160z m2174
130 c55 -28 90 -66 120 -130 21 -45 21 -49 24 -1415 l2 -1370 -160 -160 -160
-160 0 1473 0 1472 -320 0 -320 0 0 160 0 161 383 -3 382 -3 49 -25z m-519
-995 c33 -32 33 -78 0 -110 l-24 -25 -951 0 -951 0 -24 25 c-16 15 -25 36 -25
55 0 19 9 40 25 55 l24 25 951 0 951 0 24 -25z m0 -400 c33 -32 33 -78 0 -110
l-24 -25 -951 0 -951 0 -24 25 c-16 15 -25 36 -25 55 0 19 9 40 25 55 l24 25
951 0 951 0 24 -25z m0 -400 c33 -32 33 -78 0 -110 l-24 -25 -951 0 -951 0
-24 25 c-16 15 -25 36 -25 55 0 19 9 40 25 55 l24 25 951 0 951 0 24 -25z m0
-440 c33 -32 33 -78 0 -110 l-24 -25 -951 0 -951 0 -24 25 c-16 15 -25 36 -25
55 0 19 9 40 25 55 l24 25 951 0 951 0 24 -25z m0 -400 c33 -32 33 -78 0 -110
l-24 -25 -951 0 -951 0 -24 25 c-16 15 -25 36 -25 55 0 19 9 40 25 55 l24 25
951 0 951 0 24 -25z m1263 -92 c61 -45 85 -117 63 -184 -8 -25 -169 -192 -578
-601 -616 -615 -587 -590 -680 -573 -33 5 -81 49 -365 333 -353 353 -350 349
-333 439 9 49 69 109 118 118 87 17 92 13 365 -258 l252 -252 493 492 c270
271 503 497 517 503 37 15 117 6 148 -17z"/>
<path d="M2274 4739 c-34 -10 -94 -70 -94 -94 0 -7 -3 -20 -6 -29 -5 -14 11
-16 145 -16 l151 0 -6 28 c-19 84 -108 136 -190 111z"/>
</g>
</svg>
